<?xml version="1.0" encoding="iso-8859-1"?>
<!-- Generator: Adobe Illustrator 19.0.0, SVG Export Plug-In . SVG Version: 6.00 Build 0)  -->
<svg version="1.1" id="Layer_1" xmlns="http://www.w3.org/2000/svg" xmlns:xlink="http://www.w3.org/1999/xlink" x="0px" y="0px"
	 viewBox="0 0 392.663 392.663" style="enable-background:new 0 0 392.663 392.663;" xml:space="preserve">
<path style="fill:#FFFFFF;" d="M21.851,237.059h150.303c22.044-30.125,50.36-48.808,75.507-51.976V96.194H21.851V237.059z"/>
<rect x="21.851" y="21.851" style="fill:#FFC10D;" width="225.81" height="52.493"/>
<g>
	<path style="fill:#194F82;" d="M66.909,37.236h-9.438c-6.012,0-10.925,4.848-10.925,10.925s4.848,10.925,10.925,10.925h9.374
		c6.012,0,10.925-4.848,10.925-10.925S72.921,37.236,66.909,37.236z"/>
	<path style="fill:#194F82;" d="M212.04,37.236h-9.374c-6.012,0-10.925,4.848-10.925,10.925s4.848,10.925,10.925,10.925h9.374
		c6.012,0,10.925-4.848,10.925-10.925S218.053,37.236,212.04,37.236z"/>
	<path style="fill:#194F82;" d="M63.16,110.093h-9.697c-6.012,0-10.925,4.848-10.925,10.925c0,6.077,4.848,10.925,10.925,10.925
		h9.697c6.012,0,10.925-4.848,10.925-10.925C74.085,114.941,69.236,110.093,63.16,110.093z"/>
	<path style="fill:#194F82;" d="M114.166,110.093h-9.762c-6.012,0-10.925,4.848-10.925,10.925c0,6.077,4.848,10.925,10.925,10.925
		h9.762c6.012,0,10.925-4.848,10.925-10.925C125.091,114.941,120.242,110.093,114.166,110.093z"/>
	<path style="fill:#194F82;" d="M155.345,131.879h9.762c6.012,0,10.925-4.848,10.925-10.925s-4.848-10.925-10.925-10.925h-9.762
		c-6.012,0-10.925,4.848-10.925,10.925S149.333,131.879,155.345,131.879z"/>
	<path style="fill:#194F82;" d="M206.287,131.879h9.762c6.012,0,10.925-4.848,10.925-10.925s-4.848-10.925-10.925-10.925h-9.762
		c-6.012,0-10.925,4.848-10.925,10.925C195.426,127.03,200.339,131.879,206.287,131.879z"/>
	<path style="fill:#194F82;" d="M63.16,153.729h-9.697c-6.012,0-10.925,4.848-10.925,10.925c0,6.077,4.848,10.925,10.925,10.925
		h9.697c6.012,0,10.925-4.848,10.925-10.925C74.085,158.642,69.236,153.729,63.16,153.729z"/>
	<path style="fill:#194F82;" d="M114.166,153.729h-9.762c-6.012,0-10.925,4.848-10.925,10.925c0,6.077,4.848,10.925,10.925,10.925
		h9.762c6.012,0,10.925-4.848,10.925-10.925C125.091,158.578,120.242,153.729,114.166,153.729z"/>
	<path style="fill:#194F82;" d="M155.345,175.515h9.762c6.012,0,10.925-4.848,10.925-10.925s-4.848-10.925-10.925-10.925h-9.762
		c-6.012,0-10.925,4.848-10.925,10.925S149.333,175.515,155.345,175.515z"/>
	<path style="fill:#194F82;" d="M206.287,175.515h9.762c6.012,0,10.925-4.848,10.925-10.925s-4.848-10.925-10.925-10.925h-9.762
		c-6.012,0-10.925,4.848-10.925,10.925C195.426,170.667,200.339,175.515,206.287,175.515z"/>
	<path style="fill:#194F82;" d="M63.16,197.43h-9.697c-6.012,0-10.925,4.848-10.925,10.925c0,6.012,4.848,10.925,10.925,10.925
		h9.697c6.012,0,10.925-4.848,10.925-10.925C74.085,202.279,69.236,197.43,63.16,197.43z"/>
	<path style="fill:#194F82;" d="M114.166,197.43h-9.762c-6.012,0-10.925,4.848-10.925,10.925c0,6.012,4.848,10.925,10.925,10.925
		h9.762c6.012,0,10.925-4.848,10.925-10.925C125.091,202.279,120.242,197.43,114.166,197.43z"/>
	<path style="fill:#194F82;" d="M176.032,208.291c0-6.012-4.848-10.925-10.925-10.925h-9.762c-6.012,0-10.925,4.848-10.925,10.925
		c0,6.012,4.848,10.925,10.925,10.925h9.762C171.119,219.216,176.032,214.368,176.032,208.291z"/>
	<path style="fill:#194F82;" d="M315.281,237.964c-4.267,0-8.469,0.388-12.671,1.164c-0.065-20.234-6.982-37.172-21.01-46.933
		c-3.814-2.521-7.822-4.461-12.024-5.818V10.925C269.576,4.913,264.727,0,258.651,0H10.925C4.913,0,0,4.849,0,10.925v236.994
		c0,6.012,4.848,10.925,10.925,10.925h147.588c-22.432,42.99-20.945,86.626,5.495,104.792c21.657,14.869,53.269,7.822,81.584-15.127
		c12.606,26.376,39.564,44.154,69.689,44.154c42.667,0,77.382-34.715,77.382-77.382
		C392.598,272.679,357.883,237.964,315.281,237.964z M269.253,210.23c17.713,12.154,14.998,48.614-5.042,82.941l-70.529-48.356
		C218.505,213.786,251.604,198.077,269.253,210.23z M21.851,21.851h225.81v52.493H21.851V21.851z M21.851,237.059V96.129h225.81
		v88.889c-25.083,3.168-53.463,21.915-75.507,51.976H21.851V237.059z M176.291,345.6c-17.713-12.154-14.998-48.614,5.042-82.941
		l70.529,48.356C227.168,342.044,194.069,357.754,176.291,345.6z M262.465,332.412c4.848-5.43,9.503-11.184,13.834-17.519
		c0,0,0.065-0.065,0.065-0.129l0,0c11.96-17.455,19.846-35.685,23.661-52.752c4.913-1.422,10.02-2.133,15.192-2.133
		c11.378,0,21.915,3.491,30.772,9.374l-76.865,76.735C266.343,341.851,264.081,337.261,262.465,332.412z M315.281,370.812
		c-11.184,0-21.786-3.491-30.707-9.374l76.865-76.865c5.883,8.792,9.374,19.394,9.374,30.772
		C370.812,345.859,345.859,370.812,315.281,370.812z"/>
</g>
<g>
	<path style="fill:#FFC10D;" d="M370.812,315.281c0-11.378-3.491-21.915-9.374-30.772l-76.865,76.865
		c8.857,5.947,19.459,9.374,30.707,9.374C345.859,370.812,370.812,345.859,370.812,315.281z"/>
	<path style="fill:#FFC10D;" d="M300.089,261.948c-3.814,17.067-11.636,35.297-23.661,52.751l0,0l-0.065,0.129
		c-4.331,6.335-9.051,12.218-13.834,17.519c1.616,4.848,3.879,9.438,6.659,13.576l76.865-76.865
		c-8.792-5.883-19.394-9.374-30.772-9.374C310.109,259.75,305.002,260.525,300.089,261.948z"/>
</g>
<g>
	<path style="fill:#56ACE0;" d="M176.291,345.6c17.713,12.154,50.747-3.556,75.572-34.457l-70.529-48.356
		C161.422,297.115,158.642,333.511,176.291,345.6z"/>
	<path style="fill:#56ACE0;" d="M269.253,210.23c-17.713-12.154-50.747,3.556-75.572,34.457l70.529,48.356
		C284.186,258.844,286.966,222.384,269.253,210.23z"/>
</g>
<g>
</g>
<g>
</g>
<g>
</g>
<g>
</g>
<g>
</g>
<g>
</g>
<g>
</g>
<g>
</g>
<g>
</g>
<g>
</g>
<g>
</g>
<g>
</g>
<g>
</g>
<g>
</g>
<g>
</g>
</svg>
